<svg width="111" height="111" viewBox="0 0 111 111" fill="none" xmlns="http://www.w3.org/2000/svg">
<mask id="mask0_1_111" style="mask-type:alpha" maskUnits="userSpaceOnUse" x="0" y="0" width="111" height="111">
<rect width="110.25" height="110.25" fill="#D9D9D9"/>
</mask>
<g mask="url(#mask0_1_111)">
<path d="M50.5314 55.1251C45.4782 55.1251 41.1524 53.3259 37.554 49.7274C33.9555 46.129 32.1563 41.8032 32.1563 36.75C32.1563 31.6969 33.9555 27.3711 37.554 23.7727C41.1524 20.1742 45.4782 18.375 50.5314 18.375C55.5845 18.375 59.9103 20.1742 63.5087 23.7727C67.1072 27.3711 68.9064 31.6969 68.9064 36.75C68.9064 41.8032 67.1072 46.129 63.5087 49.7274C59.9103 53.3259 55.5845 55.1251 50.5314 55.1251ZM50.5314 45.9376C53.0579 45.9376 55.2216 45.0372 57.0224 43.2364C58.82 41.4387 59.7189 39.2766 59.7189 36.75C59.7189 34.2235 58.82 32.0613 57.0224 30.2636C55.2216 28.4629 53.0579 27.5625 50.5314 27.5625C48.0048 27.5625 45.8427 28.4629 44.045 30.2636C42.2442 32.0613 41.3438 34.2235 41.3438 36.75C41.3438 39.2766 42.2442 41.4387 44.045 43.2364C45.8427 45.0372 48.0048 45.9376 50.5314 45.9376ZM101.522 107.953L86.8221 93.2533C85.2143 94.172 83.4916 94.9377 81.6541 95.5502C79.8166 96.1627 77.8642 96.4689 75.797 96.4689C70.0548 96.4689 65.1732 94.4599 61.1521 90.4419C57.1341 86.4208 55.1251 81.5392 55.1251 75.797C55.1251 70.0548 57.1341 65.1732 61.1521 61.1521C65.1732 57.1341 70.0548 55.1251 75.797 55.1251C81.5392 55.1251 86.4209 57.1341 90.442 61.1521C94.46 65.1732 96.469 70.0548 96.469 75.797C96.469 77.8642 96.1627 79.8165 95.5502 81.654C94.9377 83.4915 94.1721 85.2142 93.2533 86.822L107.953 101.522L101.522 107.953ZM75.797 87.2814C79.0127 87.2814 81.7307 86.1712 83.951 83.9509C86.1713 81.7306 87.2814 79.0126 87.2814 75.797C87.2814 72.5814 86.1713 69.8634 83.951 67.6431C81.7307 65.4228 79.0127 64.3126 75.797 64.3126C72.5814 64.3126 69.8634 65.4228 67.6431 67.6431C65.4228 69.8634 64.3126 72.5814 64.3126 75.797C64.3126 79.0126 65.4228 81.7306 67.6431 83.9509C69.8634 86.1712 72.5814 87.2814 75.797 87.2814ZM13.7813 91.8752V79.1275C13.7813 76.5243 14.4321 74.1126 15.7336 71.8923C17.0352 69.672 18.8344 67.9876 21.1313 66.8392C25.036 64.8485 29.4383 63.1642 34.3384 61.786C39.2384 60.4079 44.6743 59.7188 50.6462 59.7188C49.7275 61.097 48.9435 62.57 48.2942 64.138C47.6419 65.7091 47.1243 67.3368 46.7415 69.0212C42.1478 69.404 38.0516 70.188 34.4532 71.3732C30.8548 72.5615 27.8305 73.8064 25.3805 75.1079C24.6149 75.4907 24.0223 76.0451 23.6027 76.7709C23.1801 77.4998 22.9688 78.2853 22.9688 79.1275V82.6876H46.7415C47.1243 84.372 47.6419 85.9798 48.2942 87.5111C48.9435 89.0423 49.7275 90.497 50.6462 91.8752H13.7813Z" fill="black"/>
</g>
</svg>
