<svg width="110" height="110" viewBox="0 0 110 110" fill="none" xmlns="http://www.w3.org/2000/svg">
<mask id="mask0_1_117" style="mask-type:alpha" maskUnits="userSpaceOnUse" x="0" y="0" width="110" height="110">
<rect width="109.509" height="109.509" fill="#D9D9D9"/>
</mask>
<g mask="url(#mask0_1_117)">
<path d="M50.1915 31.9401V9.12573H59.3173V31.9401H50.1915ZM80.3065 44.9442L73.9184 38.3281L90.1166 22.1299L96.5046 28.7461L80.3065 44.9442ZM29.2023 44.9442L13.0042 28.7461L19.3922 22.1299L35.5904 38.3281L29.2023 44.9442ZM54.7544 54.7544C63.728 54.7544 72.5678 56.5613 81.2738 60.1751C89.9828 63.7858 97.7214 69.2035 104.49 76.428C105.402 77.3406 105.859 78.4053 105.859 79.622C105.859 80.8388 105.402 81.9035 104.49 82.816L93.9951 93.0825C93.1585 93.919 92.1897 94.3753 91.0885 94.4513C89.9843 94.5274 88.9759 94.2232 88.0633 93.5388L74.831 83.5005C74.2226 83.0442 73.7663 82.5118 73.4622 81.9035C73.158 81.2951 73.0059 80.6106 73.0059 79.8502V66.846C70.1161 65.9334 67.1502 65.211 64.1083 64.6786C61.0664 64.1463 57.9484 63.8801 54.7544 63.8801C51.5604 63.8801 48.4424 64.1463 45.4005 64.6786C42.3586 65.211 39.3927 65.9334 36.5029 66.846V79.8502C36.5029 80.6106 36.3508 81.2951 36.0466 81.9035C35.7425 82.5118 35.2862 83.0442 34.6778 83.5005L21.4455 93.5388C20.5329 94.2232 19.526 94.5274 18.4249 94.4513C17.3206 94.3753 16.3503 93.919 15.5138 93.0825L5.01916 82.816C4.10659 81.9035 3.6503 80.8388 3.6503 79.622C3.6503 78.4053 4.10659 77.3406 5.01916 76.428C11.7114 69.2035 19.4302 63.7858 28.1757 60.1751C36.9212 56.5613 45.7808 54.7544 54.7544 54.7544ZM27.3772 70.04C25.1718 71.1807 23.0425 72.4918 20.9892 73.9732C18.9359 75.4576 16.8066 77.1124 14.6012 78.9376L19.164 83.5005L27.3772 77.1124V70.04ZM82.1316 70.2681V77.1124L90.3448 83.5005L94.9076 79.1657C92.7022 77.1885 90.5729 75.4774 88.5196 74.0325C86.4663 72.5876 84.337 71.3328 82.1316 70.2681Z" fill="#262626"/>
</g>
</svg>
